<svg xmlns="http://www.w3.org/2000/svg" xmlns:xlink="http://www.w3.org/1999/xlink" version="1.1" x="0px" y="0px" viewBox="0 0 512 640"
  enable-background="new 0 0 512 512" xml:space="preserve">
  <path d="M424.3,135.6H323.2l-11.8-39.7c-5.9-19.8-28-31.8-47.9-25.9L96,119.8c-20.3,6.1-31.9,27.5-25.9,47.9l70.1,235.6  c4.8,16.2,20,27.5,36.9,27.5c3.7,0,7.4-0.5,11-1.6l24.5-7.3v2.4c0,10.6,8.6,19.2,19.2,19.2h192.4c10.6,0,19.2-8.6,19.2-19.2V154.9  C443.5,144.2,434.9,135.6,424.3,135.6z M231.8,135.6c-10.6,0-19.2,8.6-19.2,19.2v226.9l-35.5,10.6L107,156.7l167.5-49.8l8.6,28.7  H231.8z" fill="white"/>
  <text x="0" y="527" fill="#000000" font-size="5px" font-weight="bold" font-family="'Helvetica Neue', Helvetica, Arial-Unicode, Arial, Sans-serif">Created by Creative Stall</text>
  <text x="0" y="532" fill="#000000" font-size="5px" font-weight="bold" font-family="'Helvetica Neue', Helvetica, Arial-Unicode, Arial, Sans-serif">from the Noun Project</text>
</svg>
