<?xml version="1.0" encoding="UTF-8" standalone="no"?>
<svg xmlns:svg="http://www.w3.org/2000/svg" xmlns="http://www.w3.org/2000/svg" version="1.1" id="coins_1" x="0px" y="0px" viewBox="0 0 286.375 210"
   xml:space="preserve" width="286.375" height="210">
  <g id="coins" transform="translate(0,-38.375)">
    <path style="fill:#c78d8d;clip-rule:evenodd;fill-rule:evenodd"
       d="m 125.289,143.187 c 0,-28.142 13.015,-53.219 33.326,-69.624 -4.969,-1.193 -10.086,-1.969 -15.428,-1.969 -39.544,0 -71.595,32.049 -71.595,71.593 0,39.544 32.05,71.594 71.595,71.594 5.341,0 10.458,-0.776 15.427,-1.969 -20.31,-16.406 -33.325,-41.482 -33.325,-69.625 z m -71.593,0 c 0,-28.142 13.015,-53.219 33.326,-69.624 C 82.053,72.37 76.934,71.594 71.593,71.594 32.05,71.594 0,103.643 0,143.187 c 0,39.544 32.05,71.594 71.593,71.594 5.341,0 10.459,-0.776 15.429,-1.969 C 66.711,196.406 53.696,171.33 53.696,143.187 Z M 214.781,71.594 c -39.543,0 -71.593,32.049 -71.593,71.593 0,39.544 32.05,71.594 71.593,71.594 39.545,0 71.594,-32.049 71.594,-71.594 0,-39.545 -32.049,-71.593 -71.594,-71.593 z" id="path4" />
  </g>
</svg>
