<svg xmlns="http://www.w3.org/2000/svg" data-name="Layer 1" viewBox="0 0 100 125" x="0px" y="0px">
<rect x="20.52" y="49.5" width="61.97" height="1" transform="translate(-20.27 51.06) rotate(-45)"/>
<path d="M29.94,73.26a1,1,0,0,1-.71-.29l-.71-.71a1,1,0,0,1,0-1.41L72.35,27a1,1,0,0,1,1.41,0l.71.71a1,1,0,0,1,0,1.41L30.65,73A1,1,0,0,1,29.94,73.26Z"/>
<rect x="20.02" y="49" width="62.97" height="2" transform="translate(-20.27 51.06) rotate(-45)"/>
<path d="M29.94,74a1,1,0,0,1-.71-.29l-1.41-1.41a1,1,0,0,1,0-1.41L72.35,26.32a1,1,0,0,1,1.41,0l1.41,1.41a1,1,0,0,1,0,1.41L30.65,73.68A1,1,0,0,1,29.94,74Z"/>
<path d="M44,58.65c-6.66-2.1-12.15-7.08-14.64-9.65C32.59,45.69,40.75,38.38,50,38.38a23.08,23.08,0,0,1,11.09,3.2l3.67-3.67A28.85,28.85,0,0,0,50,33.38c-14.28,0-25.46,13.47-25.93,14a2.5,2.5,0,0,0,0,3.17c.35.43,6.79,8.18,16,12Z"/>
<path d="M68.15,40.18l-3.6,3.6A45.69,45.69,0,0,1,70.62,49C67.41,52.31,59.25,59.63,50,59.63c-.42,0-.83,0-1.24-.06l-4.38,4.38a24.19,24.19,0,0,0,5.61.68c14.28,0,25.46-13.47,25.93-14a2.5,2.5,0,0,0,0-3.17A47,47,0,0,0,68.15,40.18Z"/>
<path d="M46.77,55.9,56.89,45.78a7.7,7.7,0,0,0-.69-1.21,2.13,2.13,0,1,1-.78-.94A7.63,7.63,0,1,0,46.77,55.9Z"/>
<path d="M52,56.36a7.63,7.63,0,0,0,5.4-5.4Z"/>
<text x="0" y="115" fill="#000000" font-size="5px" font-weight="bold" font-family="'Helvetica Neue', Helvetica, Arial-Unicode, Arial, Sans-serif">Created by Roman Shvets</text>
<text x="0" y="120" fill="#000000" font-size="5px" font-weight="bold" font-family="'Helvetica Neue', Helvetica, Arial-Unicode, Arial, Sans-serif">from the Noun Project</text>
</svg>
