<svg xmlns="http://www.w3.org/2000/svg" data-name="Layer 1" width="55" height="55">
<rect x="-22.60714340209961" y="77.2266674041748" width="61.970001220703125" height="1" transform="rotate(-45, -43.1271, 27.7267)" id="svg_1" class=""/>
<rect x="-22.60714340209961" y="77.2266674041748" width="61.970001220703125" height="1" transform="rotate(-45, -43.1271, 27.7267)" class="" id="svg_11"/>
<path d="M7.082857131958008,49.926666259765625 a1,1 0 0 1 -0.7099999785423279,-0.28999999165534973 l-0.7099999785423279,-0.7099999785423279 a1,1 0 0 1 0,-1.409999966621399 L49.492855072021484,3.666666030883789 a1,1 0 0 1 1.409999966621399,0 l0.7099999785423279,0.7099999785423279 a1,1 0 0 1 0,1.409999966621399 L7.792856216430664,49.666664123535156 A1,1 0 0 1 7.082857131958008,49.926666259765625 z" class="" id="svg_12" fill="#ffffff" fill-opacity="1"/>
<rect x="-23.10714340209961" y="76.7266674041748" width="62.970001220703125" height="2" transform="rotate(-45, -43.1271, 27.7267)" class="" id="svg_13"/>
<path d="M7.082857131958008,50.666664123535156 a1,1 0 0 1 -0.7099999785423279,-0.28999999165534973 l-1.409999966621399,-1.409999966621399 a1,1 0 0 1 0,-1.409999966621399 L49.492855072021484,2.986665725708008 a1,1 0 0 1 1.409999966621399,0 l1.409999966621399,1.409999966621399 a1,1 0 0 1 0,1.409999966621399 L7.792856216430664,50.34666442871094 A1,1 0 0 1 7.082857131958008,50.666664123535156 z" class="" id="svg_14" fill="#ffffff" fill-opacity="1"/>
<path d="M21.14285659790039,35.31666564941406 c-6.659999847412109,-2.0999999046325684 -12.149999618530273,-7.079999923706055 -14.640000343322754,-9.649999618530273 C9.732856750488281,22.356664657592773 17.89285659790039,15.046667098999023 27.14285659790039,15.046667098999023 a23.079999923706055,23.079999923706055 0 0 1 11.09000015258789,3.200000047683716 l3.6700000762939453,-3.6700000762939453 A28.850000381469727,28.850000381469727 0 0 0 27.14285659790039,10.046667098999023 c-14.279999732971191,0 -25.459999084472656,13.470000267028809 -25.93000030517578,14 a2.5,2.5 0 0 0 0,3.1700000762939453 c0.3499999940395355,0.4300000071525574 6.789999961853027,8.180000305175781 16,12 z" class="" id="svg_15" fill="#ffffff" fill-opacity="1"/>
<path d="M45.2928581237793,16.84666633605957 l-3.5999999046325684,3.5999999046325684 A45.689998626708984,45.689998626708984 0 0 1 47.76285934448242,25.66666603088379 C44.552860260009766,28.976667404174805 36.39285659790039,36.296669006347656 27.14285659790039,36.296669006347656 c-0.41999998688697815,0 -0.8299999833106995,0 -1.2400000095367432,-0.05999999865889549 l-4.380000114440918,4.380000114440918 a24.190000534057617,24.190000534057617 0 0 0 5.610000133514404,0.6800000071525574 c14.279999732971191,0 25.459999084472656,-13.470000267028809 25.93000030517578,-14 a2.5,2.5 0 0 0 0,-3.1700000762939453 A47,47 0 0 0 45.2928581237793,16.84666633605957 z" class="" id="svg_16" fill="#ffffff" fill-opacity="1"/>
<path d="M23.912857055664062,32.56666564941406 L34.03285598754883,22.446664810180664 a7.699999809265137,7.699999809265137 0 0 0 -0.6899999976158142,-1.2100000381469727 a2.130000114440918,2.130000114440918 0 1 1 -0.7799999713897705,-0.9399999976158142 A7.630000114440918,7.630000114440918 0 1 0 23.912857055664062,32.56666564941406 z" fill="#ffffff" fill-opacity="1"/>
<path d="M29.14285659790039,33.02666473388672 a7.630000114440918,7.630000114440918 0 0 0 5.400000095367432,-5.400000095367432 z" class="" id="svg_18" fill="#ffffff" fill-opacity="1"/>
<path d="M7.082857131958008,49.92666816711426 a1,1 0 0 1 -0.7099999785423279,-0.28999999165534973 l-0.7099999785423279,-0.7099999785423279 a1,1 0 0 1 0,-1.409999966621399 L49.492855072021484,3.666666030883789 a1,1 0 0 1 1.409999966621399,0 l0.7099999785423279,0.7099999785423279 a1,1 0 0 1 0,1.409999966621399 L7.792856216430664,49.66666603088379 A1,1 0 0 1 7.082857131958008,49.92666816711426 z" fill="#ffffff" fill-opacity="1"/>
<rect x="-23.10714340209961" y="76.7266674041748" width="62.970001220703125" height="2" transform="rotate(-45, -43.1271, 27.7267)"/>
<path d="M7.082857131958008,50.66666603088379 a1,1 0 0 1 -0.7099999785423279,-0.28999999165534973 l-1.409999966621399,-1.409999966621399 a1,1 0 0 1 0,-1.409999966621399 L49.492855072021484,2.986665725708008 a1,1 0 0 1 1.409999966621399,0 l1.409999966621399,1.409999966621399 a1,1 0 0 1 0,1.409999966621399 L7.792856216430664,50.34666633605957 A1,1 0 0 1 7.082857131958008,50.66666603088379 z" fill="#ffffff" fill-opacity="1"/>
<path d="M21.14285659790039,35.316667556762695 c-6.659999847412109,-2.0999999046325684 -12.149999618530273,-7.079999923706055 -14.640000343322754,-9.649999618530273 C9.732856750488281,22.356664657592773 17.89285659790039,15.046667098999023 27.14285659790039,15.046667098999023 a23.079999923706055,23.079999923706055 0 0 1 11.09000015258789,3.200000047683716 l3.6700000762939453,-3.6700000762939453 A28.850000381469727,28.850000381469727 0 0 0 27.14285659790039,10.046667098999023 c-14.279999732971191,0 -25.459999084472656,13.470000267028809 -25.93000030517578,14 a2.5,2.5 0 0 0 0,3.1700000762939453 c0.3499999940395355,0.4300000071525574 6.789999961853027,8.180000305175781 16,12 z" fill="#ffffff" fill-opacity="1"/>
<path d="M45.2928581237793,16.84666633605957 l-3.5999999046325684,3.5999999046325684 A45.689998626708984,45.689998626708984 0 0 1 47.76285934448242,25.66666603088379 C44.552860260009766,28.976667404174805 36.39285659790039,36.29666709899902 27.14285659790039,36.29666709899902 c-0.41999998688697815,0 -0.8299999833106995,0 -1.2400000095367432,-0.05999999865889549 l-4.380000114440918,4.380000114440918 a24.190000534057617,24.190000534057617 0 0 0 5.610000133514404,0.6800000071525574 c14.279999732971191,0 25.459999084472656,-13.470000267028809 25.93000030517578,-14 a2.5,2.5 0 0 0 0,-3.1700000762939453 A47,47 0 0 0 45.2928581237793,16.84666633605957 z" fill="#ffffff" fill-opacity="1"/>
<path d="M23.912857055664062,32.566667556762695 L34.03285598754883,22.446664810180664 a7.699999809265137,7.699999809265137 0 0 0 -0.6899999976158142,-1.2100000381469727 a2.130000114440918,2.130000114440918 0 1 1 -0.7799999713897705,-0.9399999976158142 A7.630000114440918,7.630000114440918 0 1 0 23.912857055664062,32.566667556762695 z" fill="#ffffff" fill-opacity="1"/>
<path d="M29.14285659790039,33.02666664123535 a7.630000114440918,7.630000114440918 0 0 0 5.400000095367432,-5.400000095367432 z" id="svg_8" class="" fill="#ffffff" fill-opacity="1"/>
<text x="-0.47618865966796875" y="64.04761695861816" fill="#000000" font-size="5px" font-weight="bold" font-family="'Helvetica Neue', Helvetica, Arial-Unicode, Arial, Sans-serif" class="" id="svg_23">Created by Roman Shvets</text>
<text x="-0.47618865966796875" y="69.04761695861816" fill="#000000" font-size="5px" font-weight="bold" font-family="'Helvetica Neue', Helvetica, Arial-Unicode, Arial, Sans-serif" id="svg_10" class="">from the Noun Project</text>
</svg>
