<svg xmlns="http://www.w3.org/2000/svg" xmlns:xlink="http://www.w3.org/1999/xlink" version="1.1" x="0px" y="0px" viewBox="0 0 30 37.5" xml:space="preserve">
<g transform="translate(-390 -380)">
  <g xmlns="http://www.w3.org/2000/svg" xmlns:xlink="http://www.w3.org/1999/xlink" style="fill:white;">
    <path d="M409,389c-0.293,0.13-2,1-4,1s-3.705-0.87-4-1c-4.008,2.147-6,7.891-6,12.333c0,5.523,4.477,6.667,10,6.667    c5.523,0,10-1.144,10-6.667C415,396.891,413.008,391.147,409,389z"/>
    <path d="M418.791,391.846l0.781-0.625c-2.891-3.613-6.256-4.238-8.104-4.272c-0.152,0.145-0.654,0.593-1.469,1.051    c0.215,0.094,6.75,3.049,7.688,9.603l0.99-0.142c-0.725-5.06-4.387-8.077-6.6-9.468    C413.799,388.165,416.473,388.946,418.791,391.846z"/>
    <path d="M405,383c-2.709,0-5-2.708-5,0c0,1.22,0.264,2.777,1,4c0.506,0.326,2,1,4,1s3.85-0.902,4-1c0.738-1.225,1-2.778,1-4    C410,380.292,407.711,383,405,383z"/>
  </g>
</g>
<text x="0" y="45" fill="#000000" font-size="5px" font-weight="bold" font-family="'Helvetica Neue', Helvetica, Arial-Unicode, Arial, Sans-serif">Created by Hea Poh Lin</text>
<text x="0" y="50" fill="#000000" font-size="5px" font-weight="bold" font-family="'Helvetica Neue', Helvetica, Arial-Unicode, Arial, Sans-serif">from the Noun Project</text>
</svg>
